HIERARCHY
ROOT Hips
{
	OFFSET 0.000000 89.005402 0.000000
	CHANNELS 6 Xposition Yposition Zposition Xrotation Yrotation Zrotation
	JOINT Spine
	{
		OFFSET 0.116900 10.681000 0.373400
		CHANNELS 3 Xrotation Yrotation Zrotation
		JOINT Spine1
		{
			OFFSET 0.000000 13.840401 0.053500
			CHANNELS 3 Xrotation Yrotation Zrotation
			JOINT Spine2
			{
				OFFSET 0.000000 14.712700 -0.366200
				CHANNELS 3 Xrotation Yrotation Zrotation
				JOINT Neck
				{
					OFFSET 0.000000 35.415497 -3.314200
					CHANNELS 3 Xrotation Yrotation Zrotation
					JOINT Head
					{
						OFFSET 0.000000 16.899200 1.218300
						CHANNELS 3 Xrotation Yrotation Zrotation
						JOINT HeadTop_End
						{
							OFFSET 0.000000 22.206207 2.192500
							CHANNELS 3 Xrotation Yrotation Zrotation
							End Site
							{
								OFFSET 0.000000 22.314178 0.000000
							}
						}
					}
				}
				JOINT LeftShoulder
				{
					OFFSET 12.896400 26.716293 -4.548400
					CHANNELS 3 Xrotation Yrotation Zrotation
					JOINT LeftArm
					{
						OFFSET 19.027000 -4.857010 -1.718400
						CHANNELS 3 Xrotation Yrotation Zrotation
						JOINT LeftForeArm
						{
							OFFSET 24.179897 0.000000 0.000000
							CHANNELS 3 Xrotation Yrotation Zrotation
							JOINT LeftHand
							{
								OFFSET 27.156403 0.000000 0.000000
								CHANNELS 3 Xrotation Yrotation Zrotation
								JOINT LeftHandIndex1
								{
									OFFSET 16.441200 0.000000 0.000000
									CHANNELS 3 Xrotation Yrotation Zrotation
									JOINT LeftHandIndex2
									{
										OFFSET 4.821899 0.000000 0.000000
										CHANNELS 3 Xrotation Yrotation Zrotation
										JOINT LeftHandIndex3
										{
											OFFSET 6.386497 0.000000 0.000000
											CHANNELS 3 Xrotation Yrotation Zrotation
											JOINT LeftHandIndex4
											{
												OFFSET 5.188988 0.000000 0.000000
												CHANNELS 3 Xrotation Yrotation Zrotation
												End Site
												{
													OFFSET -0.178703 5.185913 0.000177
												}
											}
										}
									}
								}
								JOINT LeftHandThumb1
								{
									OFFSET 6.534897 -5.032593 5.900300
									CHANNELS 3 Xrotation Yrotation Zrotation
									JOINT LeftHandThumb2
									{
										OFFSET 3.818176 -2.204422 2.204423
										CHANNELS 3 Xrotation Yrotation Zrotation
										JOINT LeftHandThumb3
										{
											OFFSET 3.252098 -1.877594 1.877601
											CHANNELS 3 Xrotation Yrotation Zrotation
											JOINT LeftHandThumb4
											{
												OFFSET 5.251778 -3.032120 3.032117
												CHANNELS 3 Xrotation Yrotation Zrotation
												End Site
												{
													OFFSET 0.000023 6.780014 0.000000
												}
											}
										}
									}
								}
							}
						}
					}
				}
				JOINT RightShoulder
				{
					OFFSET -12.896300 26.716293 -4.548400
					CHANNELS 3 Xrotation Yrotation Zrotation
					JOINT RightArm
					{
						OFFSET -19.027000 -4.857010 -1.718400
						CHANNELS 3 Xrotation Yrotation Zrotation
						JOINT RightForeArm
						{
							OFFSET -24.179897 0.000000 0.000000
							CHANNELS 3 Xrotation Yrotation Zrotation
							JOINT RightHand
							{
								OFFSET -27.156403 0.000000 0.000000
								CHANNELS 3 Xrotation Yrotation Zrotation
								JOINT RightHandThumb1
								{
									OFFSET -6.591202 -4.852203 5.988100
									CHANNELS 3 Xrotation Yrotation Zrotation
									JOINT RightHandThumb2
									{
										OFFSET -3.818176 -2.204422 2.204423
										CHANNELS 3 Xrotation Yrotation Zrotation
										JOINT RightHandThumb3
										{
											OFFSET -3.252098 -1.877594 1.877601
											CHANNELS 3 Xrotation Yrotation Zrotation
											JOINT RightHandThumb4
											{
												OFFSET -5.251778 -3.032120 3.032117
												CHANNELS 3 Xrotation Yrotation Zrotation
												End Site
												{
													OFFSET -0.000023 6.780014 0.000000
												}
											}
										}
									}
								}
								JOINT RightHandIndex1
								{
									OFFSET -16.029404 0.000000 0.000000
									CHANNELS 3 Xrotation Yrotation Zrotation
									JOINT RightHandIndex2
									{
										OFFSET -5.213303 0.000000 0.000000
										CHANNELS 3 Xrotation Yrotation Zrotation
										JOINT RightHandIndex3
										{
											OFFSET -6.386528 0.000000 0.000000
											CHANNELS 3 Xrotation Yrotation Zrotation
											JOINT RightHandIndex4
											{
												OFFSET -5.189026 0.000000 0.000000
												CHANNELS 3 Xrotation Yrotation Zrotation
												End Site
												{
													OFFSET 0.236702 5.183624 0.001972
												}
											}
										}
									}
								}
							}
						}
					}
				}
			}
		}
	}
	JOINT LeftUpLeg
	{
		OFFSET 14.073000 -7.904099 -1.463000
		CHANNELS 3 Xrotation Yrotation Zrotation
		JOINT LeftLeg
		{
			OFFSET -0.109806 -34.073280 4.093200
			CHANNELS 3 Xrotation Yrotation Zrotation
			JOINT LeftFoot
			{
				OFFSET 0.109806 -29.899420 -6.319000
				CHANNELS 3 Xrotation Yrotation Zrotation
				JOINT LeftToeBase
				{
					OFFSET 1.551100 -14.988700 20.535801
					CHANNELS 3 Xrotation Yrotation Zrotation
					JOINT LeftToe_End
					{
						OFFSET 0.221200 0.570800 13.248301
						CHANNELS 3 Xrotation Yrotation Zrotation
						End Site
						{
							OFFSET 0.000000 13.262435 0.000000
						}
					}
				}
			}
		}
	}
	JOINT RightUpLeg
	{
		OFFSET -13.839300 -7.904099 -1.463000
		CHANNELS 3 Xrotation Yrotation Zrotation
		JOINT RightLeg
		{
			OFFSET 0.109694 -34.073219 4.093300
			CHANNELS 3 Xrotation Yrotation Zrotation
			JOINT RightFoot
			{
				OFFSET -0.109694 -29.899384 -6.319200
				CHANNELS 3 Xrotation Yrotation Zrotation
				JOINT RightToeBase
				{
					OFFSET -1.551100 -14.988700 20.535801
					CHANNELS 3 Xrotation Yrotation Zrotation
					JOINT RightToe_End
					{
						OFFSET -0.221200 0.570900 13.248299
						CHANNELS 3 Xrotation Yrotation Zrotation
						End Site
						{
							OFFSET 0.000000 13.262440 0.000000
						}
					}
				}
			}
		}
	}
}
MOTION
Frames: 9
Frame Time: 0.033333
0.048816 67.032547 3.418308 17.915719 6.939269 2.308786 24.911040 -1.807454 -0.637616 9.984213 -0.279444 0.369387 9.985403 -0.248855 0.340491 -13.716330 0.013825 0.930262 -37.498732 2.736715 -4.332477 0.000000 -0.000000 0.000000 1.478048 2.484403 6.153247 -39.636459 40.459486 -27.578945 -0.000000 -121.968136 0.000001 9.513713 3.436590 21.973388 0.045727 0.793847 -6.593238 0.229619 1.766751 -14.808823 0.373413 2.240802 -18.919511 -0.000001 -0.000000 -0.000001 -1.665944 10.475366 7.161649 4.500560 14.758263 1.259414 0.034253 8.370838 3.195743 0.000000 -0.000001 0.000000 0.699826 1.664549 -0.959362 -37.611417 -48.785162 23.551151 0.000002 116.191394 -0.000007 -14.214351 -0.905278 -11.008371 -2.014189 -11.528553 -7.837540 5.353895 -16.615598 -0.772918 -0.558980 -7.825499 -2.926917 -0.000000 -0.000000 0.000000 0.139480 -1.388485 11.472136 0.376109 -2.259977 18.894644 0.536303 -2.682400 22.608995 -0.000001 -0.000000 0.000000 -62.302978 -6.412750 18.466695 55.108121 -12.103757 4.686421 -10.932459 3.367049 -24.306485 -0.000322 -0.000002 0.000007 0.000000 0.000000 -0.000000 -68.261450 0.384903 -35.252512 58.121939 5.106237 -9.348982 -13.951947 14.946583 27.890137 -0.003326 0.000007 0.000000 -0.000000 0.000000 0.000000 
0.007956 67.038307 3.457716 17.983186 6.867845 2.321082 24.562986 -1.764723 -0.675309 10.014754 -0.274086 0.342081 10.016139 -0.244465 0.313238 -13.718598 -0.000153 1.064353 -37.414800 2.773697 -4.291626 0.000001 -0.000000 0.000000 1.206180 2.481978 5.929972 -40.394087 39.463347 -26.976703 -0.000001 -121.413743 -0.000006 9.736348 3.341991 21.924935 0.046279 0.798611 -6.632869 0.230230 1.769061 -14.828655 0.373797 2.241916 -18.929434 -0.000000 -0.000001 0.000002 -1.665948 10.475372 7.161658 4.500560 14.758261 1.259413 0.034253 8.370842 3.195743 0.000001 -0.000002 -0.000000 0.703026 1.622499 -1.343671 -38.348247 -47.703537 22.862086 -0.000028 115.757049 0.000028 -13.983955 -1.244391 -9.572397 -2.014188 -11.528575 -7.837545 5.353897 -16.615596 -0.772918 -0.558980 -7.825501 -2.926916 0.000002 -0.000001 -0.000001 0.174428 -1.550750 12.835022 0.403457 -2.338309 19.576739 0.552392 -2.720663 22.950231 0.000000 -0.000001 0.000002 -62.174201 -6.672181 18.653633 55.007468 -12.120735 4.320208 -10.934300 3.585323 -24.268125 -0.000350 0.000000 -0.000000 0.000000 -0.000000 0.000000 -68.484948 0.239017 -35.271333 58.175966 5.126393 -9.352025 -13.965817 15.151764 27.764253 -0.003960 -0.000001 0.000009 -0.000000 0.000000 0.000000 
-0.035162 67.049622 3.490175 17.898214 6.744419 2.363825 24.427992 -1.744455 -0.726834 10.050895 -0.271313 0.341568 10.052398 -0.240998 0.312472 -13.685109 0.000055 1.072641 -37.420366 2.740443 -4.236444 -0.000000 0.000000 -0.000000 1.067121 2.473240 5.804810 -40.685275 38.966683 -26.686731 -0.000001 -121.103393 -0.000003 9.776065 3.242573 21.786434 0.046813 0.803179 -6.670894 0.230816 1.771261 -14.847677 0.374168 2.243010 -18.938957 -0.000001 0.000001 -0.000001 -1.665945 10.475398 7.161656 4.500559 14.758260 1.259413 0.034252 8.370836 3.195742 0.000002 -0.000001 0.000000 0.694754 1.606826 -1.471261 -39.165421 -47.416898 22.133416 0.000034 115.682900 -0.000042 -14.077301 -1.551797 -8.304395 -2.014187 -11.528554 -7.837539 5.353894 -16.615595 -0.772919 -0.558978 -7.825492 -2.926913 0.000001 0.000001 0.000002 0.204443 -1.676966 13.900401 0.425501 -2.399336 20.109918 0.565133 -2.750491 23.216986 -0.000000 -0.000003 0.000003 -61.802161 -7.133709 18.912560 54.900869 -12.157071 3.710042 -10.976339 3.936399 -24.173496 -0.000346 -0.000001 0.000004 0.000000 -0.000000 -0.000000 -68.699060 -0.037060 -35.382234 58.220382 5.146080 -9.356874 -13.960722 15.610291 27.588715 -0.009876 0.000002 -0.000002 -0.000000 0.000000 0.000000 
-0.059802 67.072525 3.516811 17.601213 6.605055 2.500149 24.552343 -1.741977 -0.796674 10.083618 -0.270926 0.367396 10.085329 -0.238066 0.337797 -13.599807 0.008492 0.969533 -37.525292 2.632321 -4.184330 0.000001 0.000000 -0.000000 1.051760 2.443190 5.755566 -40.393052 38.930654 -26.758624 -0.000002 -121.081386 -0.000006 9.480328 3.089746 21.532315 0.047438 0.808516 -6.715527 0.231508 1.773877 -14.870013 0.374610 2.244293 -18.950123 0.000000 -0.000000 -0.000000 -1.665944 10.475351 7.161654 4.500561 14.758261 1.259408 0.034252 8.370840 3.195746 0.000001 -0.000000 -0.000001 0.677579 1.616075 -1.371875 -39.955527 -47.922216 21.430828 0.000007 116.013700 -0.000006 -14.540916 -1.827148 -7.447012 -2.014185 -11.528560 -7.837540 5.353892 -16.615593 -0.772919 -0.558980 -7.825495 -2.926914 0.000001 0.000002 -0.000001 0.227003 -1.765625 14.651818 0.441394 -2.442224 20.485945 0.574179 -2.771502 23.405103 0.000002 -0.000004 0.000001 -61.168326 -7.606759 19.101119 54.808774 -12.132966 3.059193 -11.080116 4.291124 -24.064650 -0.000319 -0.000000 0.000003 0.000000 -0.000000 0.000000 -68.882758 -0.440489 -35.718812 58.251343 5.172981 -9.363216 -13.928906 16.379924 27.376474 -0.006493 -0.000000 0.000000 0.000000 -0.000000 -0.000000 
-0.034840 67.110962 3.529926 17.157273 6.536235 2.745933 24.853568 -1.734279 -0.899717 10.112385 -0.270432 0.405654 10.114302 -0.233551 0.375562 -13.486552 0.012039 0.849550 -37.731454 2.491375 -4.125289 0.000000 0.000000 0.000000 1.113055 2.387517 5.736310 -39.581585 39.191865 -27.143003 -0.000002 -121.339827 -0.000003 8.829767 2.860521 21.156267 0.048288 0.815719 -6.775462 0.232436 1.777352 -14.900005 0.375197 2.246014 -18.965128 0.000001 -0.000001 -0.000004 -1.665947 10.475375 7.161657 4.500562 14.758261 1.259412 0.034253 8.370841 3.195742 -0.000000 0.000000 -0.000003 0.663666 1.637647 -1.200928 -40.251363 -48.876263 21.080931 0.000006 116.596985 -0.000006 -15.261513 -2.150547 -6.822572 -2.014186 -11.528574 -7.837545 5.353894 -16.615596 -0.772921 -0.558980 -7.825497 -2.926915 -0.000000 -0.000001 0.000000 0.245935 -1.836423 15.253578 0.454296 -2.476497 20.787126 0.581500 -2.788300 23.555748 -0.000004 0.000000 -0.000000 -60.462453 -7.819691 19.018831 54.763726 -11.973662 2.699708 -11.203144 4.496571 -23.998177 -0.000267 0.000003 0.000002 -0.000000 0.000000 -0.000000 -69.046068 -0.910435 -36.354932 58.236010 5.205655 -9.370742 -13.856085 17.377311 27.179805 -0.000036 0.000002 -0.000002 0.000000 -0.000000 -0.000000 
0.066782 67.183937 3.505798 16.813930 6.605018 3.014214 25.111190 -1.687413 -1.063717 10.155842 -0.265481 0.434301 10.157868 -0.223777 0.404101 -13.418830 0.003198 0.851429 -38.057223 2.407054 -3.958394 -0.000000 0.000000 0.000000 1.200713 2.329398 5.718680 -38.582683 39.651608 -27.649540 -0.000004 -121.848553 0.000001 8.030353 2.604691 20.683925 0.049361 0.824703 -6.850665 0.233603 1.781742 -14.937634 0.375934 2.248147 -18.983946 -0.000001 0.000001 0.000001 -1.665948 10.475378 7.161657 4.500559 14.758261 1.259412 0.034254 8.370843 3.195746 0.000000 0.000005 0.000000 0.675476 1.650683 -1.194383 -39.162303 -49.570764 21.692018 0.000039 117.052367 -0.000036 -16.011910 -2.519291 -6.355319 -2.014194 -11.528550 -7.837534 5.353892 -16.615598 -0.772920 -0.558977 -7.825497 -2.926915 -0.000001 -0.000003 0.000000 0.261850 -1.893802 15.742754 0.464943 -2.504323 21.031898 0.587471 -2.801927 23.678222 -0.000003 -0.000001 -0.000001 -60.060278 -7.576219 18.572220 54.736262 -11.709403 2.872575 -11.212052 4.505129 -23.976742 -0.000225 -0.000001 -0.000006 0.000000 0.000000 -0.000000 -69.232662 -1.352827 -37.145659 58.027518 5.203040 -9.380339 -13.686390 18.382469 27.085105 -0.000001 -0.000000 0.000004 -0.000000 0.000000 -0.000000 
0.253717 67.339340 3.413795 16.882788 6.772841 3.145408 25.118475 -1.587716 -1.301639 10.242641 -0.253683 0.441289 10.244677 -0.206877 0.411477 -13.473050 -0.006161 1.048641 -38.521693 2.461781 -3.498839 0.000000 0.000000 0.000000 1.303767 2.317241 5.725761 -37.865889 40.446003 -28.015812 -0.000003 -122.587689 0.000005 7.560647 2.477145 20.187343 0.050484 0.833984 -6.928119 0.234811 1.786261 -14.976385 0.376695 2.250364 -19.003348 0.000001 0.000001 -0.000004 -1.665946 10.475371 7.161654 4.500558 14.758261 1.259414 0.034252 8.370841 3.195744 -0.000000 -0.000003 -0.000000 0.735208 1.635419 -1.527159 -35.914036 -49.057386 23.778991 -0.000001 116.909589 -0.000004 -16.493812 -2.730708 -6.468306 -2.014193 -11.528565 -7.837533 5.353892 -16.615603 -0.772920 -0.558977 -7.825494 -2.926916 -0.000001 0.000001 0.000000 0.261428 -1.892312 15.730183 0.464671 -2.503615 21.025592 0.587315 -2.801572 23.675061 -0.000000 0.000002 -0.000001 -60.272164 -6.895238 17.906681 54.576244 -11.465629 3.499371 -10.943536 4.380548 -23.912774 -0.000205 -0.000003 0.000003 -0.000000 -0.000000 0.000000 -69.463215 -1.715855 -37.741569 57.327847 5.065984 -9.392791 -13.301980 19.217893 27.186940 -0.039025 -0.000006 0.000008 -0.000000 0.000000 0.000000 
0.516130 67.626030 3.234119 17.496778 6.960028 2.997316 24.855776 -1.470412 -1.564203 10.383208 -0.238787 0.435610 10.385196 -0.187256 0.406239 -13.666159 0.005857 1.384812 -39.054489 2.649709 -2.600599 -0.000000 -0.000000 -0.000000 1.435304 2.394017 5.801616 -37.817914 41.761303 -28.017545 0.000004 -123.495680 0.000004 7.811719 2.604739 19.776898 0.051360 0.841152 -6.987919 0.235747 1.789764 -15.006313 0.377283 2.252053 -19.018310 -0.000001 0.000002 0.000002 -1.665942 10.475372 7.161654 4.500559 14.758260 1.259412 0.034253 8.370841 3.195742 -0.000000 0.000000 -0.000001 0.850156 1.579682 -2.213388 -30.811779 -46.348048 27.136265 0.000009 115.797033 -0.000009 -16.634516 -2.399781 -8.057497 -2.014199 -11.528556 -7.837538 5.353893 -16.615596 -0.772919 -0.558976 -7.825495 -2.926915 0.000001 -0.000001 -0.000001 0.219805 -1.737853 14.416289 0.436372 -2.428799 20.368087 0.571332 -2.764903 23.346159 -0.000003 0.000001 -0.000001 -61.111260 -6.038847 17.294524 54.092096 -11.361396 4.213743 -10.301161 4.194838 -23.688546 -0.000204 0.000002 0.000001 -0.000000 -0.000000 -0.000000 -69.661987 -2.060463 -37.878033 55.861542 4.652234 -9.406743 -12.615680 19.916676 27.548625 -0.094377 0.000005 0.000007 -0.000000 0.000000 0.000000 
0.836648 68.044403 2.966650 18.454056 7.227459 2.502559 24.511208 -1.405852 -1.742348 10.555805 -0.229665 0.438781 10.557792 -0.174829 0.409110 -13.945914 0.042832 1.724110 -39.471639 2.827005 -1.256902 -0.000001 -0.000000 -0.000000 1.591749 2.562779 5.958196 -38.569781 43.516658 -27.572354 0.000009 -124.441812 0.000004 8.747872 2.970791 19.535576 0.051783 0.844599 -7.016629 0.236195 1.791407 -15.020672 0.377567 2.252867 -19.025504 -0.000000 -0.000002 -0.000001 -1.665944 10.475378 7.161651 4.500559 14.758258 1.259411 0.034254 8.370847 3.195745 -0.000000 0.000002 0.000002 1.008179 1.483331 -3.110351 -25.350433 -40.926692 30.796596 0.000002 113.579065 -0.000006 -16.673390 -1.178936 -11.958773 -2.014191 -11.528564 -7.837543 5.353892 -16.615601 -0.772922 -0.558979 -7.825500 -2.926916 0.000001 0.000000 -0.000001 0.130130 -1.341662 11.080225 0.368413 -2.237366 18.698488 0.531731 -2.671369 22.510856 -0.000001 -0.000000 0.000001 -62.295983 -5.405870 16.865125 53.207778 -11.434346 4.644409 -9.293856 3.959552 -23.256424 -0.000236 -0.000005 0.000003 -0.000000 -0.000000 -0.000000 -69.637665 -2.574113 -37.673838 53.643910 3.834140 -9.420139 -11.726609 20.716109 28.174044 -0.000081 0.000003 -0.000001 0.000000 0.000000 0.000000 
